<svg width="38" height="63" viewBox="0 0 38 63" fill="none" xmlns="http://www.w3.org/2000/svg">
<g filter="url(#filter0_d_328_177)">
<path d="M0.467188 51.72C0.467188 50.2267 0.840521 48.5467 1.58719 46.68C2.33385 44.76 3.05385 43.24 3.74719 42.12C4.44052 40.9467 4.84052 40.36 4.94719 40.36C8.04052 42.2267 11.2939 43.16 14.7072 43.16C16.8405 43.16 18.5472 42.7333 19.8272 41.88C21.1605 41.0267 21.8272 39.8533 21.8272 38.36C21.8272 36.8133 21.2139 35.8267 19.9872 35.4C18.8139 34.9733 16.9205 34.68 14.3072 34.52H11.4272C10.7872 34.52 10.1739 33.7467 9.58719 32.2C9.05385 30.6 8.78719 29.0533 8.78719 27.56C8.78719 25.0533 9.53385 23.7733 11.0272 23.72L13.3472 23.64C14.7872 23.64 16.2805 23.24 17.8272 22.44C19.4272 21.5867 20.2272 20.52 20.2272 19.24C20.2272 17 18.2272 15.88 14.2272 15.88C11.2405 15.88 8.36052 16.4667 5.58719 17.64C3.18719 13.32 1.98719 9.96 1.98719 7.56C1.98719 5.10666 3.66719 3.26666 7.02719 2.04C10.4405 0.81333 14.7072 0.199997 19.8272 0.199997C24.9472 0.199997 28.9472 1.26666 31.8272 3.4C34.7072 5.53333 36.1472 8.44 36.1472 12.12C36.1472 18.5733 33.3739 23.5333 27.8272 27C34.5472 29.72 37.9072 34.3333 37.9072 40.84C37.9072 45.9067 36.1205 50.0133 32.5472 53.16C28.9739 56.2533 23.8539 57.8 17.1872 57.8C12.9739 57.8 9.13385 57.2133 5.66719 56.04C2.20052 54.8133 0.467188 53.3733 0.467188 51.72Z" fill="#FFEEE1"/>
</g>
<defs>
<filter id="filter0_d_328_177" x="0.467188" y="0.199997" width="37.44" height="62.6" filterUnits="userSpaceOnUse" color-interpolation-filters="sRGB">
<feFlood flood-opacity="0" result="BackgroundImageFix"/>
<feColorMatrix in="SourceAlpha" type="matrix" values="0 0 0 0 0 0 0 0 0 0 0 0 0 0 0 0 0 0 127 0" result="hardAlpha"/>
<feOffset dy="5"/>
<feComposite in2="hardAlpha" operator="out"/>
<feColorMatrix type="matrix" values="0 0 0 0 0.160784 0 0 0 0 0.576471 0 0 0 0 0.729412 0 0 0 1 0"/>
<feBlend mode="normal" in2="BackgroundImageFix" result="effect1_dropShadow_328_177"/>
<feBlend mode="normal" in="SourceGraphic" in2="effect1_dropShadow_328_177" result="shape"/>
</filter>
</defs>
</svg>
