<svg width="322" height="63" viewBox="0 0 322 63" fill="none" xmlns="http://www.w3.org/2000/svg">
<g filter="url(#filter0_d_328_178)">
<path d="M40.6234 57.16C35.9834 57.16 33.4768 56.4133 33.1034 54.92L30.4634 44.6H17.7434L15.4234 54.52C15.1034 56.1733 12.5434 57 7.74344 57C5.18344 57 3.2901 56.8667 2.06344 56.6C0.836771 56.28 0.223438 56.04 0.223438 55.88L14.3834 1.72C14.3834 1.29333 18.0368 1.08 25.3434 1.08C32.6501 1.08 36.3034 1.29333 36.3034 1.72L50.1434 55.96C50.1434 56.3333 48.9168 56.6267 46.4634 56.84C44.0101 57.0533 42.0634 57.16 40.6234 57.16ZM19.7434 34.44H28.1434L24.5434 17.88H24.0634L19.7434 34.44ZM67.2434 49.8C67.2434 48.2533 67.6968 46.4667 68.6034 44.44C69.5101 42.36 70.4968 40.9467 71.5634 40.2C73.5901 41.6933 75.6434 42.44 77.7234 42.44L80.2034 42.04C83.0834 41.1867 84.5768 38.8933 84.6834 35.16V14.76H78.2834C77.3768 14.76 76.7368 13.6133 76.3634 11.32C76.2034 10.2 76.1234 9.05333 76.1234 7.88C76.1234 6.70666 76.2034 5.56 76.3634 4.44C76.7368 2.14666 77.3768 0.999996 78.2834 0.999996H97.3234C98.3901 0.999996 99.1901 1.32 99.7234 1.96C100.257 2.54666 100.523 3.26666 100.523 4.12V41.88C100.523 47.1067 98.7634 51.08 95.2434 53.8C91.7768 56.52 87.5901 57.88 82.6834 57.88C77.8301 57.88 74.0434 57.16 71.3234 55.72C68.6034 54.28 67.2434 52.3067 67.2434 49.8ZM133.637 2.6C133.637 1.53333 136.517 0.999996 142.277 0.999996C148.09 0.999996 150.997 1.53333 150.997 2.6V39.32C150.997 44.76 149.05 49.2133 145.157 52.68C141.263 56.0933 135.877 57.8 128.997 57.8C122.17 57.8 116.597 56.04 112.277 52.52C108.01 48.9467 105.877 44.1467 105.877 38.12V2.68C105.877 1.61333 108.757 1.08 114.517 1.08C120.33 1.08 123.237 1.61333 123.237 2.68V38.76C123.237 39.8267 123.797 40.68 124.917 41.32C126.09 41.96 127.317 42.28 128.597 42.28C129.877 42.28 131.023 41.9867 132.037 41.4C133.103 40.8133 133.637 39.9333 133.637 38.76V2.6ZM187.311 40.28L187.471 29.4C187.471 28.6533 188.244 28.1733 189.791 27.96C191.338 27.6933 192.618 27.56 193.631 27.56L196.751 27.8C198.778 28.12 199.791 28.68 199.791 29.48L199.471 54.52C198.404 55.2667 196.244 56.0133 192.991 56.76C189.791 57.4533 186.111 57.8 181.951 57.8C174.218 57.8 167.978 55.2933 163.231 50.28C158.484 45.2667 156.111 37.9067 156.111 28.2C156.111 19.9333 158.431 13.2133 163.071 8.04C167.711 2.86666 174.138 0.279996 182.351 0.279996C186.084 0.279996 189.444 0.653329 192.431 1.4C195.471 2.09333 197.551 3.05333 198.671 4.28C198.724 4.70666 198.751 5.50667 198.751 6.68C198.751 7.85333 198.351 9.53333 197.551 11.72C196.751 13.8533 195.844 15.4533 194.831 16.52C193.818 17.5867 193.071 18.12 192.591 18.12C192.164 18.12 191.684 17.9333 191.151 17.56C190.671 17.1333 189.684 16.7067 188.191 16.28C186.698 15.8 185.258 15.56 183.871 15.56C180.564 15.56 177.871 16.6267 175.791 18.76C173.764 20.8933 172.751 24.2 172.751 28.68C172.751 33.16 173.791 36.5733 175.871 38.92C178.004 41.2133 180.431 42.36 183.151 42.36C185.924 42.36 187.311 41.6667 187.311 40.28ZM244.998 57.16C240.358 57.16 237.852 56.4133 237.478 54.92L234.838 44.6H222.118L219.798 54.52C219.478 56.1733 216.918 57 212.118 57C209.558 57 207.665 56.8667 206.438 56.6C205.212 56.28 204.598 56.04 204.598 55.88L218.758 1.72C218.758 1.29333 222.412 1.08 229.718 1.08C237.025 1.08 240.678 1.29333 240.678 1.72L254.518 55.96C254.518 56.3333 253.292 56.6267 250.838 56.84C248.385 57.0533 246.438 57.16 244.998 57.16ZM224.118 34.44H232.518L228.918 17.88H228.438L224.118 34.44ZM275.1 55.88C275.1 56.7333 272.567 57.16 267.5 57.16C262.38 57.16 259.82 56.76 259.82 55.96V3.8C259.82 1.93333 260.807 0.999996 262.78 0.999996H278.06C292.087 0.999996 299.1 6.46666 299.1 17.4C299.1 20.7067 298.46 23.72 297.18 26.44C295.9 29.1067 294.087 31.24 291.74 32.84L301.82 49.64C301.394 50.92 300.007 52.3867 297.66 54.04C294.46 56.3333 291.82 57.48 289.74 57.48C287.66 57.48 286.114 56.7333 285.1 55.24L277.58 37.72H275.1V55.88ZM275.1 15.16V27.16H275.5C280.567 27.16 283.1 25.0533 283.1 20.84C283.1 18.92 282.594 17.5067 281.58 16.6C280.62 15.64 279.02 15.16 276.78 15.16H275.1ZM319.808 40.2C319.808 40.52 317.888 40.68 314.048 40.68C310.261 40.68 308.368 40.5467 308.368 40.28L306.768 0.839998C306.768 0.413331 309.194 0.199997 314.048 0.199997C318.954 0.199997 321.408 0.386664 321.408 0.759999L319.808 40.2ZM306.608 45C306.608 44.6267 309.061 44.44 313.968 44.44C318.928 44.44 321.408 44.6 321.408 44.92V56.44C321.408 56.9733 318.928 57.24 313.968 57.24C309.061 57.24 306.608 57.08 306.608 56.76V45Z" fill="#FFEEE1"/>
</g>
<defs>
<filter id="filter0_d_328_178" x="0.22345" y="0.199997" width="321.184" height="62.68" filterUnits="userSpaceOnUse" color-interpolation-filters="sRGB">
<feFlood flood-opacity="0" result="BackgroundImageFix"/>
<feColorMatrix in="SourceAlpha" type="matrix" values="0 0 0 0 0 0 0 0 0 0 0 0 0 0 0 0 0 0 127 0" result="hardAlpha"/>
<feOffset dy="5"/>
<feComposite in2="hardAlpha" operator="out"/>
<feColorMatrix type="matrix" values="0 0 0 0 0.160784 0 0 0 0 0.576471 0 0 0 0 0.729412 0 0 0 1 0"/>
<feBlend mode="normal" in2="BackgroundImageFix" result="effect1_dropShadow_328_178"/>
<feBlend mode="normal" in="SourceGraphic" in2="effect1_dropShadow_328_178" result="shape"/>
</filter>
</defs>
</svg>
