<svg width="45" height="45" viewBox="0 0 45 45" fill="none" xmlns="http://www.w3.org/2000/svg">
<g clip-path="url(#clip0_291_177)">
<path d="M38.5853 7.29407C37.1525 5.8513 34.6494 5.84131 33.2066 7.27267C31.7182 8.74826 31.7068 11.1615 33.1838 12.6513C37.3352 16.8355 38.5039 22.8192 36.2335 28.2707C34.4368 32.5819 29.9386 37.187 22.6948 37.187C16.527 37.187 11.2197 33.7835 8.84359 28.3063C6.52316 22.9548 7.55351 16.9882 11.5336 12.7369C12.9664 11.2057 12.8865 8.79536 11.3552 7.36115C9.88393 5.98402 7.358 6.06679 5.98087 7.53953C-0.102753 14.0413 -1.67825 23.1589 1.86804 31.3346C5.46713 39.6359 13.4488 44.7948 22.6962 44.7948C31.8837 44.7948 39.7612 39.586 43.2561 31.1976C46.7282 22.8563 44.9401 13.6988 38.5853 7.29407Z" fill="white"/>
</g>
<defs>
<clipPath id="clip0_291_177">
<rect width="45" height="45" fill="white"/>
</clipPath>
</defs>
</svg>
