<svg width="495" height="63" viewBox="0 0 495 63" fill="none" xmlns="http://www.w3.org/2000/svg">
<g filter="url(#filter0_d_328_178)">
<path d="M30.7716 0.999996C31.6782 0.999996 32.1316 3.37333 32.1316 8.12C32.1316 12.8133 31.6782 15.16 30.7716 15.16H16.1316V24.28H25.8916C26.7982 24.28 27.2516 26.36 27.2516 30.52C27.2516 34.6267 26.8249 36.68 25.9716 36.68H16.1316V55.96C16.1316 56.7067 15.1182 57.1867 13.0916 57.4C11.1182 57.6667 9.4649 57.8 8.13156 57.8L4.37156 57.64C1.75823 57.32 0.451563 56.7867 0.451563 56.04V3.08C0.451563 2.22666 0.611563 1.66666 0.931563 1.4C1.3049 1.13333 1.83823 0.999996 2.53156 0.999996H30.7716ZM43.8659 43.24V14.76H38.1859C37.2793 14.76 36.6393 13.6133 36.2659 11.32C36.1059 10.2 36.0259 9.05333 36.0259 7.88C36.0259 6.70666 36.1059 5.56 36.2659 4.44C36.6393 2.14666 37.2793 0.999996 38.1859 0.999996H65.0659C65.9726 0.999996 66.5859 2.14666 66.9059 4.44C67.1193 5.56 67.2259 6.70666 67.2259 7.88C67.2259 9.05333 67.1193 10.2 66.9059 11.32C66.5859 13.6133 65.9726 14.76 65.0659 14.76H59.7059V43.24H65.3059C66.2126 43.24 66.8526 44.3867 67.2259 46.68C67.4393 47.8 67.5459 48.9467 67.5459 50.12C67.5459 51.2933 67.4393 52.44 67.2259 53.56C66.8526 55.8533 66.2126 57 65.3059 57H38.3459C37.4393 57 36.8259 55.8533 36.5059 53.56C36.2926 52.44 36.1859 51.2933 36.1859 50.12C36.1859 48.9467 36.2926 47.8 36.5059 46.68C36.8259 44.3867 37.4393 43.24 38.3459 43.24H43.8659ZM116.723 55.24C116.723 56.36 114.216 56.92 109.203 56.92C104.189 56.92 101.469 56.52 101.043 55.72L87.6828 30.76V55.64C87.6828 56.6 85.2028 57.08 80.2428 57.08C75.3361 57.08 72.8828 56.6 72.8828 55.64V2.12C72.8828 1.32 74.9895 0.919997 79.2028 0.919997C80.8561 0.919997 82.7761 1.08 84.9628 1.4C87.2028 1.66666 88.5628 2.2 89.0428 3L101.843 27.64V2.52C101.843 1.50666 104.323 0.999996 109.283 0.999996C114.243 0.999996 116.723 1.50666 116.723 2.52V55.24ZM139.836 53.32V5.32C139.836 3.98667 140.156 2.94666 140.796 2.2C141.489 1.4 142.369 0.999996 143.436 0.999996H156.796C165.276 0.999996 171.703 3.13333 176.076 7.4C180.503 11.6667 182.716 18.3867 182.716 27.56C182.716 47.1867 174.343 57 157.596 57H143.916C141.196 57 139.836 55.7733 139.836 53.32ZM155.196 16.2V40.12C155.196 41.24 155.276 41.96 155.436 42.28C155.596 42.5467 156.076 42.68 156.876 42.68C159.809 42.68 162.023 41.5867 163.516 39.4C165.063 37.2133 165.836 33.5867 165.836 28.52C165.836 23.4 165.036 20.0667 163.436 18.52C161.889 16.9733 159.409 16.2 155.996 16.2H155.196ZM215.133 23.24C216.146 23.24 216.653 25.1067 216.653 28.84C216.653 29.96 216.519 31.2933 216.253 32.84C216.039 34.3333 215.613 35.08 214.973 35.08H204.813V43.08H219.533C220.439 43.08 221.053 44.2533 221.373 46.6C221.533 47.6133 221.613 48.7067 221.613 49.88C221.613 51 221.453 52.4667 221.133 54.28C220.813 56.0933 220.279 57 219.533 57H192.173C190.146 57 189.133 56.1733 189.133 54.52V3.08C189.133 1.69333 189.746 0.999996 190.973 0.999996H219.613C220.733 0.999996 221.293 3.37333 221.293 8.12C221.293 12.8133 220.733 15.16 219.613 15.16H204.813V23.24H215.133ZM258.944 55.88C258.944 56.7333 256.411 57.16 251.344 57.16C246.224 57.16 243.664 56.76 243.664 55.96V3.8C243.664 1.93333 244.651 0.999996 246.624 0.999996H261.904C275.931 0.999996 282.944 6.46666 282.944 17.4C282.944 20.7067 282.304 23.72 281.024 26.44C279.744 29.1067 277.931 31.24 275.584 32.84L285.664 49.64C285.237 50.92 283.851 52.3867 281.504 54.04C278.304 56.3333 275.664 57.48 273.584 57.48C271.504 57.48 269.957 56.7333 268.944 55.24L261.424 37.72H258.944V55.88ZM258.944 15.16V27.16H259.344C264.411 27.16 266.944 25.0533 266.944 20.84C266.944 18.92 266.437 17.5067 265.424 16.6C264.464 15.64 262.864 15.16 260.624 15.16H258.944ZM314.612 57.8C307.145 57.8 301.038 55.3467 296.292 50.44C291.598 45.5333 289.252 38.3867 289.252 29C289.252 19.56 291.625 12.4133 296.372 7.56C301.172 2.70666 307.332 0.279996 314.852 0.279996C322.425 0.279996 328.532 2.68 333.172 7.48C337.812 12.2267 340.132 19.4533 340.132 29.16C340.132 38.8133 337.758 46.0133 333.012 50.76C328.265 55.4533 322.132 57.8 314.612 57.8ZM314.692 15.64C312.132 15.64 309.972 16.8133 308.212 19.16C306.505 21.5067 305.652 24.8133 305.652 29.08C305.652 33.2933 306.478 36.5467 308.132 38.84C309.785 41.08 311.945 42.2 314.612 42.2C317.332 42.2 319.518 41.0533 321.172 38.76C322.878 36.4667 323.732 33.1867 323.732 28.92C323.732 24.6533 322.852 21.3733 321.092 19.08C319.385 16.7867 317.252 15.64 314.692 15.64ZM390.395 55.24C390.395 56.36 387.888 56.92 382.875 56.92C377.861 56.92 375.141 56.52 374.715 55.72L361.355 30.76V55.64C361.355 56.6 358.875 57.08 353.915 57.08C349.008 57.08 346.555 56.6 346.555 55.64V2.12C346.555 1.32 348.661 0.919997 352.875 0.919997C354.528 0.919997 356.448 1.08 358.635 1.4C360.875 1.66666 362.235 2.2 362.715 3L375.515 27.64V2.52C375.515 1.50666 377.995 0.999996 382.955 0.999996C387.915 0.999996 390.395 1.50666 390.395 2.52V55.24ZM398.43 53.32V5.32C398.43 3.98667 398.75 2.94666 399.39 2.2C400.083 1.4 400.963 0.999996 402.03 0.999996H415.39C423.87 0.999996 430.296 3.13333 434.67 7.4C439.096 11.6667 441.31 18.3867 441.31 27.56C441.31 47.1867 432.936 57 416.19 57H402.51C399.79 57 398.43 55.7733 398.43 53.32ZM413.79 16.2V40.12C413.79 41.24 413.87 41.96 414.03 42.28C414.19 42.5467 414.67 42.68 415.47 42.68C418.403 42.68 420.616 41.5867 422.11 39.4C423.656 37.2133 424.43 33.5867 424.43 28.52C424.43 23.4 423.63 20.0667 422.03 18.52C420.483 16.9733 418.003 16.2 414.59 16.2H413.79ZM485.327 57.16C480.687 57.16 478.18 56.4133 477.807 54.92L475.167 44.6H462.447L460.127 54.52C459.807 56.1733 457.247 57 452.447 57C449.887 57 447.993 56.8667 446.767 56.6C445.54 56.28 444.927 56.04 444.927 55.88L459.087 1.72C459.087 1.29333 462.74 1.08 470.047 1.08C477.353 1.08 481.007 1.29333 481.007 1.72L494.847 55.96C494.847 56.3333 493.62 56.6267 491.167 56.84C488.713 57.0533 486.767 57.16 485.327 57.16ZM464.447 34.44H472.847L469.247 17.88H468.767L464.447 34.44Z" fill="#FFEEE1"/>
</g>
<defs>
<filter id="filter0_d_328_178" x="0.451569" y="0.279999" width="494.395" height="62.52" filterUnits="userSpaceOnUse" color-interpolation-filters="sRGB">
<feFlood flood-opacity="0" result="BackgroundImageFix"/>
<feColorMatrix in="SourceAlpha" type="matrix" values="0 0 0 0 0 0 0 0 0 0 0 0 0 0 0 0 0 0 127 0" result="hardAlpha"/>
<feOffset dy="5"/>
<feComposite in2="hardAlpha" operator="out"/>
<feColorMatrix type="matrix" values="0 0 0 0 0.160784 0 0 0 0 0.576471 0 0 0 0 0.729412 0 0 0 1 0"/>
<feBlend mode="normal" in2="BackgroundImageFix" result="effect1_dropShadow_328_178"/>
<feBlend mode="normal" in="SourceGraphic" in2="effect1_dropShadow_328_178" result="shape"/>
</filter>
</defs>
</svg>
