<svg width="407" height="102" viewBox="0 0 407 102" fill="none" xmlns="http://www.w3.org/2000/svg">
<g filter="url(#filter0_d_261_3)">
<path d="M37.256 2.936C41.928 2.936 46.024 3.608 49.544 4.952C53.128 6.232 54.92 7.992 54.92 10.232C54.92 12.472 54.056 15.256 52.328 18.584C50.664 21.848 49.256 23.48 48.104 23.48C47.784 23.48 47.4 23.32 46.952 23C46.568 22.616 45.608 22.232 44.072 21.848C42.6 21.4 41.32 21.176 40.232 21.176C36.52 21.176 33.512 22.488 31.208 25.112C28.968 27.736 27.848 31.768 27.848 37.208C27.848 42.584 29 46.584 31.304 49.208C33.672 51.832 36.648 53.144 40.232 53.144C41.704 53.144 43.336 52.952 45.128 52.568C46.984 52.12 48.296 51.512 49.064 50.744C49.192 50.616 49.448 50.552 49.832 50.552C50.216 50.552 50.92 51.288 51.944 52.76C53.032 54.168 54.024 56.056 54.92 58.424C55.816 60.728 56.264 62.52 56.264 63.8C56.264 66.296 54.344 68.28 50.504 69.752C46.664 71.224 42.12 71.96 36.872 71.96C28.424 71.96 21.48 68.984 16.04 63.032C10.6 57.08 7.88 48.696 7.88 37.88C7.88 27 10.664 18.456 16.232 12.248C21.864 6.04 28.872 2.936 37.256 2.936ZM69.1805 36.152C67.3885 32.952 66.4925 30.36 66.4925 28.376C66.4925 26.328 67.0365 25.016 68.1245 24.44C71.7725 22.84 76.7645 22.04 83.1005 22.04C89.5005 22.04 94.0125 23.544 96.6365 26.552C99.2605 29.496 100.573 33.88 100.573 39.704V54.872H103.837C104.925 54.872 105.757 55.512 106.333 56.792C106.973 58.072 107.292 59.832 107.292 62.072C107.292 64.312 106.717 66.52 105.565 68.696C104.477 70.872 102.973 71.96 101.053 71.96C97.5965 71.96 94.8125 71.032 92.7005 69.176C91.7405 68.408 91.0045 67.48 90.4925 66.392C87.5485 70.104 82.9725 71.96 76.7645 71.96C72.0925 71.96 68.1565 70.296 64.9565 66.968C61.7565 63.64 60.1565 59.704 60.1565 55.16C60.1565 44.728 66.3965 39.512 78.8765 39.512H84.1565V38.552C84.1565 36.888 83.8685 35.832 83.2925 35.384C82.7805 34.872 81.5325 34.616 79.5485 34.616C77.1165 34.616 73.6605 35.128 69.1805 36.152ZM76.8605 53.816C76.8605 55.224 77.2445 56.312 78.0125 57.08C78.7805 57.784 79.7405 58.136 80.8925 58.136C82.1085 58.136 83.1965 57.656 84.1565 56.696V49.304H81.4685C78.3965 49.304 76.8605 50.808 76.8605 53.816ZM133.75 70.904C133.75 71.352 130.838 71.576 125.014 71.576C119.19 71.448 116.278 71.192 116.278 70.808V38.936H113.686C112.662 38.936 111.83 38.328 111.19 37.112C110.614 35.832 110.326 34.264 110.326 32.408C110.326 25.496 112.374 22.04 116.47 22.04C119.35 22.04 121.75 22.936 123.67 24.728C125.59 26.456 126.55 28.44 126.55 30.68C127.894 28.056 129.686 25.976 131.926 24.44C134.23 22.84 136.566 22.04 138.934 22.04C142.646 22.04 144.886 23 145.654 24.92C145.846 25.432 145.942 26.2 145.942 27.224C145.942 28.184 145.622 29.944 144.982 32.504C144.406 35.064 143.798 36.92 143.158 38.072C142.518 39.224 142.134 39.8 142.006 39.8C141.878 39.8 141.27 39.576 140.182 39.128C139.158 38.616 138.23 38.36 137.398 38.36C134.966 38.36 133.75 40.28 133.75 44.12V70.904ZM168.453 71C162.245 71 157.445 69.016 154.053 65.048C150.661 61.016 148.965 55.096 148.965 47.288C148.965 39.416 151.173 33.272 155.589 28.856C160.069 24.376 165.989 22.136 173.349 22.136C180.773 22.136 186.885 23.768 191.685 27.032V74.84C191.685 79.576 189.765 83.192 185.925 85.688C182.085 88.248 177.157 89.528 171.141 89.528C165.125 89.528 159.749 88.76 155.013 87.224C154.373 85.688 154.053 84.312 154.053 83.096C154.053 79 154.725 75.992 156.069 74.072C160.357 75.928 164.933 76.856 169.797 76.856C173.317 76.856 175.077 75.608 175.077 73.112V70.232C172.325 70.744 170.117 71 168.453 71ZM172.869 37.784C168.581 37.784 166.437 41.016 166.437 47.48C166.437 51.512 167.269 54.136 168.933 55.352C170.021 56.184 171.109 56.6 172.197 56.6C173.285 56.6 174.245 56.504 175.077 56.312V38.072C174.309 37.88 173.573 37.784 172.869 37.784ZM206.337 36.152C204.545 32.952 203.649 30.36 203.649 28.376C203.649 26.328 204.193 25.016 205.281 24.44C208.929 22.84 213.921 22.04 220.257 22.04C226.657 22.04 231.169 23.544 233.793 26.552C236.417 29.496 237.729 33.88 237.729 39.704V54.872H240.993C242.081 54.872 242.913 55.512 243.489 56.792C244.129 58.072 244.449 59.832 244.449 62.072C244.449 64.312 243.873 66.52 242.721 68.696C241.633 70.872 240.129 71.96 238.209 71.96C234.753 71.96 231.969 71.032 229.857 69.176C228.897 68.408 228.161 67.48 227.649 66.392C224.705 70.104 220.129 71.96 213.921 71.96C209.249 71.96 205.313 70.296 202.113 66.968C198.913 63.64 197.313 59.704 197.313 55.16C197.313 44.728 203.553 39.512 216.033 39.512H221.313V38.552C221.313 36.888 221.025 35.832 220.449 35.384C219.937 34.872 218.689 34.616 216.705 34.616C214.273 34.616 210.817 35.128 206.337 36.152ZM214.017 53.816C214.017 55.224 214.401 56.312 215.169 57.08C215.937 57.784 216.897 58.136 218.049 58.136C219.265 58.136 220.353 57.656 221.313 56.696V49.304H218.625C215.553 49.304 214.017 50.808 214.017 53.816ZM269.947 70.424C269.947 70.872 267.643 71.096 263.035 71.096C256.635 70.904 253.435 70.552 253.435 70.04V38.936H250.939C249.275 38.936 248.187 37.528 247.675 34.712C247.547 33.88 247.483 33.048 247.483 32.216C247.483 30.232 247.867 28.248 248.635 26.264C249.787 23.448 251.579 22.04 254.011 22.04C256.443 22.04 258.619 22.616 260.539 23.768C262.459 24.92 263.739 26.072 264.379 27.224C268.411 23.768 273.211 22.04 278.779 22.04C284.347 22.04 288.379 23.544 290.875 26.552C293.371 29.56 294.619 34.488 294.619 41.336V70.136C294.619 70.904 291.867 71.288 286.363 71.288C280.923 71.288 278.203 70.904 278.203 70.136V42.392C278.203 39.192 277.083 37.592 274.843 37.592C274.203 37.592 273.307 37.88 272.155 38.456C271.003 38.968 270.267 39.352 269.947 39.608V70.424ZM327.046 4.376C327.046 3.416 329.574 2.936 334.63 2.936C336.358 2.936 338.342 3.064 340.582 3.32C342.886 3.512 344.038 3.8 344.038 4.184V54.776H347.398C348.998 54.776 350.054 56.216 350.566 59.096C350.694 59.928 350.758 61.08 350.758 62.552C350.758 63.96 350.31 65.688 349.414 67.736C348.134 70.552 346.086 71.96 343.27 71.96C341.158 71.96 339.27 71.544 337.606 70.712C336.006 69.88 334.918 69.016 334.342 68.12L333.478 66.872C329.958 70.264 325.542 71.96 320.23 71.96C314.918 71.96 310.374 69.752 306.598 65.336C302.822 60.92 300.934 54.776 300.934 46.904C300.934 38.968 302.918 32.856 306.886 28.568C310.854 24.216 315.814 22.04 321.766 22.04C323.494 22.04 325.254 22.232 327.046 22.616V4.376ZM323.878 37.4C320.294 37.4 318.502 40.632 318.502 47.096C318.502 50.36 319.014 52.728 320.038 54.2C321.062 55.608 322.182 56.312 323.398 56.312C324.678 56.312 325.894 55.768 327.046 54.68V38.36C325.958 37.72 324.902 37.4 323.878 37.4ZM361.167 65.336C357.199 60.92 355.215 54.808 355.215 47C355.215 39.192 357.199 33.08 361.167 28.664C365.199 24.248 370.607 22.04 377.391 22.04C384.175 22.04 389.551 24.248 393.519 28.664C397.487 33.08 399.471 39.192 399.471 47C399.471 54.808 397.487 60.92 393.519 65.336C389.551 69.752 384.175 71.96 377.391 71.96C370.607 71.96 365.199 69.752 361.167 65.336ZM377.391 38.072C373.807 38.072 372.015 41.016 372.015 46.904C372.015 52.792 373.807 55.736 377.391 55.736C381.039 55.736 382.863 52.792 382.863 46.904C382.863 41.016 381.039 38.072 377.391 38.072Z" fill="white"/>
</g>
<defs>
<filter id="filter0_d_261_3" x="0.880005" y="0.936005" width="405.591" height="100.592" filterUnits="userSpaceOnUse" color-interpolation-filters="sRGB">
<feFlood flood-opacity="0" result="BackgroundImageFix"/>
<feColorMatrix in="SourceAlpha" type="matrix" values="0 0 0 0 0 0 0 0 0 0 0 0 0 0 0 0 0 0 127 0" result="hardAlpha"/>
<feOffset dy="5"/>
<feGaussianBlur stdDeviation="3.5"/>
<feComposite in2="hardAlpha" operator="out"/>
<feColorMatrix type="matrix" values="0 0 0 0 0 0 0 0 0 0 0 0 0 0 0 0 0 0 0.25 0"/>
<feBlend mode="normal" in2="BackgroundImageFix" result="effect1_dropShadow_261_3"/>
<feBlend mode="normal" in="SourceGraphic" in2="effect1_dropShadow_261_3" result="shape"/>
</filter>
</defs>
</svg>
