<svg width="402" height="79" viewBox="0 0 402 79" fill="none" xmlns="http://www.w3.org/2000/svg">
<g filter="url(#filter0_d_328_178)">
<path d="M7.71 73.16C2.85667 73.16 0.43 72.6267 0.43 71.56V19.72C0.43 17.9067 1.25667 17 2.91 17H16.99C24.8833 17 30.5633 18.6267 34.03 21.88C37.55 25.1333 39.31 29.8533 39.31 36.04C39.31 41.16 37.6567 45.8533 34.35 50.12C32.6967 52.2533 30.27 53.96 27.07 55.24C23.87 56.52 20.1367 57.16 15.87 57.16V71.48C15.87 72.12 14.8567 72.5733 12.83 72.84C10.8567 73.0533 9.15 73.16 7.71 73.16ZM15.87 30.92V43.56H16.91C18.7767 43.56 20.35 42.9733 21.63 41.8C22.91 40.6267 23.55 38.9733 23.55 36.84C23.55 34.7067 23.0967 33.1867 22.19 32.28C21.3367 31.3733 19.79 30.92 17.55 30.92H15.87ZM61.655 71.88C61.655 72.7333 59.1217 73.16 54.055 73.16C48.935 73.16 46.375 72.76 46.375 71.96V19.8C46.375 17.9333 47.3617 17 49.335 17H64.615C78.6417 17 85.655 22.4667 85.655 33.4C85.655 36.7067 85.015 39.72 83.735 42.44C82.455 45.1067 80.6417 47.24 78.295 48.84L88.375 65.64C87.9483 66.92 86.5617 68.3867 84.215 70.04C81.015 72.3333 78.375 73.48 76.295 73.48C74.215 73.48 72.6683 72.7333 71.655 71.24L64.135 53.72H61.655V71.88ZM61.655 31.16V43.16H62.055C67.1217 43.16 69.655 41.0533 69.655 36.84C69.655 34.92 69.1483 33.5067 68.135 32.6C67.175 31.64 65.575 31.16 63.335 31.16H61.655ZM119.563 39.24C120.576 39.24 121.083 41.1067 121.083 44.84C121.083 45.96 120.949 47.2933 120.683 48.84C120.469 50.3333 120.043 51.08 119.403 51.08H109.243V59.08H123.963C124.869 59.08 125.483 60.2533 125.803 62.6C125.963 63.6133 126.043 64.7067 126.043 65.88C126.043 67 125.883 68.4667 125.563 70.28C125.243 72.0933 124.709 73 123.963 73H96.6025C94.5758 73 93.5625 72.1733 93.5625 70.52V19.08C93.5625 17.6933 94.1758 17 95.4025 17H124.043C125.163 17 125.723 19.3733 125.723 24.12C125.723 28.8133 125.163 31.16 124.043 31.16H109.243V39.24H119.563ZM139.976 73.16C135.122 73.16 132.696 72.6267 132.696 71.56V19.72C132.696 17.9067 133.522 17 135.176 17H149.256C157.149 17 162.829 18.6267 166.296 21.88C169.816 25.1333 171.576 29.8533 171.576 36.04C171.576 41.16 169.922 45.8533 166.616 50.12C164.962 52.2533 162.536 53.96 159.336 55.24C156.136 56.52 152.402 57.16 148.136 57.16V71.48C148.136 72.12 147.122 72.5733 145.096 72.84C143.122 73.0533 141.416 73.16 139.976 73.16ZM148.136 30.92V43.56H149.176C151.042 43.56 152.616 42.9733 153.896 41.8C155.176 40.6267 155.816 38.9733 155.816 36.84C155.816 34.7067 155.362 33.1867 154.456 32.28C153.602 31.3733 152.056 30.92 149.816 30.92H148.136ZM216.161 73.96C211.521 73.96 209.014 73.2133 208.641 71.72L206.081 60.6H193.361L190.961 71.32C190.641 72.9733 188.081 73.8 183.281 73.8C180.721 73.8 178.827 73.64 177.601 73.32C176.374 73.0533 175.761 72.84 175.761 72.68L190.001 17.72C190.001 17.2933 193.654 17.08 200.961 17.08C208.267 17.08 211.921 17.2933 211.921 17.72L225.681 72.76C225.681 73.1333 224.454 73.4267 222.001 73.64C219.547 73.8533 217.601 73.96 216.161 73.96ZM195.361 50.44H203.761L200.161 33.88H199.681L195.361 50.44ZM195.281 14.68C194.801 14.68 194.187 14.1467 193.441 13.08C192.481 11.5867 192.001 10.3333 192.001 9.31999C192.001 8.30666 192.161 7.64 192.481 7.32C201.174 2.52 205.601 0.119994 205.761 0.119994C206.294 0.119994 206.961 0.759995 207.761 2.04C208.987 3.90666 209.601 5.66666 209.601 7.32C209.601 7.90666 209.467 8.33333 209.201 8.59999C200.027 12.6533 195.387 14.68 195.281 14.68ZM246.343 71.88C246.343 72.7333 243.809 73.16 238.743 73.16C233.623 73.16 231.063 72.76 231.063 71.96V19.8C231.063 17.9333 232.049 17 234.023 17H249.303C263.329 17 270.343 22.4667 270.343 33.4C270.343 36.7067 269.703 39.72 268.423 42.44C267.143 45.1067 265.329 47.24 262.983 48.84L273.063 65.64C272.636 66.92 271.249 68.3867 268.903 70.04C265.703 72.3333 263.063 73.48 260.983 73.48C258.903 73.48 257.356 72.7333 256.343 71.24L248.823 53.72H246.343V71.88ZM246.343 31.16V43.16H246.743C251.809 43.16 254.343 41.0533 254.343 36.84C254.343 34.92 253.836 33.5067 252.823 32.6C251.863 31.64 250.263 31.16 248.023 31.16H246.343ZM315.85 73.16C311.21 73.16 308.703 72.4133 308.33 70.92L305.69 60.6H292.97L290.65 70.52C290.33 72.1733 287.77 73 282.97 73C280.41 73 278.517 72.8667 277.29 72.6C276.063 72.28 275.45 72.04 275.45 71.88L289.61 17.72C289.61 17.2933 293.263 17.08 300.57 17.08C307.877 17.08 311.53 17.2933 311.53 17.72L325.37 71.96C325.37 72.3333 324.143 72.6267 321.69 72.84C319.237 73.0533 317.29 73.16 315.85 73.16ZM294.97 50.44H303.37L299.77 33.88H299.29L294.97 50.44ZM352.721 71.72C352.721 72.7867 350.081 73.32 344.801 73.32C339.521 73.32 336.881 72.7867 336.881 71.72V31.56H327.281C326.374 31.56 325.734 30.3333 325.361 27.88C325.201 26.7067 325.121 25.5067 325.121 24.28C325.121 23.0533 325.201 21.8533 325.361 20.68C325.734 18.2267 326.374 17 327.281 17H362.081C362.987 17 363.627 18.2267 364.001 20.68C364.161 21.8533 364.241 23.0533 364.241 24.28C364.241 25.5067 364.161 26.7067 364.001 27.88C363.627 30.3333 362.987 31.56 362.081 31.56H352.721V71.72ZM394.797 39.24C395.81 39.24 396.317 41.1067 396.317 44.84C396.317 45.96 396.184 47.2933 395.917 48.84C395.704 50.3333 395.277 51.08 394.637 51.08H384.477V59.08H399.197C400.104 59.08 400.717 60.2533 401.037 62.6C401.197 63.6133 401.277 64.7067 401.277 65.88C401.277 67 401.117 68.4667 400.797 70.28C400.477 72.0933 399.944 73 399.197 73H371.837C369.81 73 368.797 72.1733 368.797 70.52V19.08C368.797 17.6933 369.41 17 370.637 17H399.277C400.397 17 400.957 19.3733 400.957 24.12C400.957 28.8133 400.397 31.16 399.277 31.16H384.477V39.24H394.797Z" fill="#FFEEE1"/>
</g>
<defs>
<filter id="filter0_d_328_178" x="0.429993" y="0.119995" width="400.847" height="78.84" filterUnits="userSpaceOnUse" color-interpolation-filters="sRGB">
<feFlood flood-opacity="0" result="BackgroundImageFix"/>
<feColorMatrix in="SourceAlpha" type="matrix" values="0 0 0 0 0 0 0 0 0 0 0 0 0 0 0 0 0 0 127 0" result="hardAlpha"/>
<feOffset dy="5"/>
<feComposite in2="hardAlpha" operator="out"/>
<feColorMatrix type="matrix" values="0 0 0 0 0.160784 0 0 0 0 0.576471 0 0 0 0 0.729412 0 0 0 1 0"/>
<feBlend mode="normal" in2="BackgroundImageFix" result="effect1_dropShadow_328_178"/>
<feBlend mode="normal" in="SourceGraphic" in2="effect1_dropShadow_328_178" result="shape"/>
</filter>
</defs>
</svg>
