<svg width="62" height="62" viewBox="0 0 62 62" fill="none" xmlns="http://www.w3.org/2000/svg">
<path d="M51.6666 54.25C51.6666 50.6448 51.6666 48.8422 51.2217 47.3754C50.2199 44.0728 47.6355 41.4884 44.3329 40.4866C42.8661 40.0417 41.0635 40.0417 37.4583 40.0417H24.5417C20.9364 40.0417 19.1338 40.0417 17.667 40.4866C14.3645 41.4884 11.7801 44.0728 10.7783 47.3754C10.3333 48.8422 10.3333 50.6448 10.3333 54.25M42.625 19.375C42.625 25.7953 37.4203 31 31 31C24.5797 31 19.375 25.7953 19.375 19.375C19.375 12.9547 24.5797 7.75 31 7.75C37.4203 7.75 42.625 12.9547 42.625 19.375Z" stroke="white" stroke-width="5" stroke-linecap="round" stroke-linejoin="round"/>
</svg>
