<svg width="16" height="16" viewBox="0 0 16 16" fill="none" xmlns="http://www.w3.org/2000/svg">
<g clip-path="url(#clip0_38_71)">
<path d="M5.33337 5.33333V3.46666C5.33337 2.71992 5.33337 2.34656 5.4787 2.06134C5.60653 1.81046 5.8105 1.60648 6.06139 1.47865C6.3466 1.33333 6.71997 1.33333 7.46671 1.33333H12.5334C13.2801 1.33333 13.6535 1.33333 13.9387 1.47865C14.1896 1.60648 14.3936 1.81046 14.5214 2.06134C14.6667 2.34656 14.6667 2.71992 14.6667 3.46666V8.53333C14.6667 9.28007 14.6667 9.65343 14.5214 9.93865C14.3936 10.1895 14.1896 10.3935 13.9387 10.5213C13.6535 10.6667 13.2801 10.6667 12.5334 10.6667H10.6667M3.46671 14.6667H8.53337C9.28011 14.6667 9.65348 14.6667 9.93869 14.5213C10.1896 14.3935 10.3936 14.1895 10.5214 13.9386C10.6667 13.6534 10.6667 13.2801 10.6667 12.5333V7.46666C10.6667 6.71992 10.6667 6.34656 10.5214 6.06134C10.3936 5.81046 10.1896 5.60648 9.93869 5.47865C9.65348 5.33333 9.28011 5.33333 8.53337 5.33333H3.46671C2.71997 5.33333 2.3466 5.33333 2.06139 5.47865C1.8105 5.60648 1.60653 5.81046 1.4787 6.06134C1.33337 6.34656 1.33337 6.71993 1.33337 7.46666V12.5333C1.33337 13.2801 1.33337 13.6534 1.4787 13.9386C1.60653 14.1895 1.8105 14.3935 2.06139 14.5213C2.3466 14.6667 2.71997 14.6667 3.46671 14.6667Z" stroke="#361F1F" stroke-width="2" stroke-linecap="round" stroke-linejoin="round"/>
</g>
<defs>
<clipPath id="clip0_38_71">
<rect width="16" height="16" fill="white"/>
</clipPath>
</defs>
</svg>
