<svg width="36" height="36" viewBox="0 0 36 36" fill="none" xmlns="http://www.w3.org/2000/svg">
<g clip-path="url(#clip0_200_1475)">
<path d="M11.6498 22.1439L17.5167 25.5312M26.0153 4.03658L22.2169 5.52058C21.7529 5.70189 21.5208 5.79255 21.3167 5.92481C21.1356 6.04216 20.9711 6.18344 20.8278 6.34483C20.6664 6.52673 20.5418 6.74248 20.2927 7.17396L9.1093 26.5441C8.17392 28.1642 8.72901 30.2358 10.3491 31.1712C11.9692 32.1066 14.0409 31.5515 14.9762 29.9314L26.1596 10.5612C26.4087 10.1298 26.5333 9.91402 26.6101 9.68321C26.6782 9.47843 26.7184 9.26539 26.7294 9.04986C26.7419 8.80693 26.7044 8.56065 26.6294 8.06809L26.0153 4.03658Z" stroke="#616161" stroke-width="1.5" stroke-linecap="round" stroke-linejoin="round"/>
</g>
<defs>
<clipPath id="clip0_200_1475">
<rect width="28.7421" height="28.7421" fill="white" transform="translate(35.5713 28.1324) rotate(165)"/>
</clipPath>
</defs>
</svg>
