<svg width="30" height="36" viewBox="0 0 30 36" fill="none" xmlns="http://www.w3.org/2000/svg">
<rect y="6" width="30" height="30" rx="12" fill="#2993BA"/>
<rect y="3" width="30" height="30" rx="12" fill="#FF9447"/>
<rect width="30" height="30" rx="12" fill="#FD6F5A"/>
<path d="M17.08 17.984L17.128 14.72C17.128 14.496 17.36 14.352 17.824 14.288C18.288 14.208 18.672 14.168 18.976 14.168L19.912 14.24C20.52 14.336 20.824 14.504 20.824 14.744L20.728 22.256C20.408 22.48 19.76 22.704 18.784 22.928C17.824 23.136 16.72 23.24 15.472 23.24C13.152 23.24 11.28 22.488 9.856 20.984C8.432 19.48 7.72 17.272 7.72 14.36C7.72 11.88 8.416 9.864 9.808 8.312C11.2 6.76 13.128 5.984 15.592 5.984C16.712 5.984 17.72 6.096 18.616 6.32C19.528 6.528 20.152 6.816 20.488 7.184C20.504 7.312 20.512 7.552 20.512 7.904C20.512 8.256 20.392 8.76 20.152 9.416C19.912 10.056 19.64 10.536 19.336 10.856C19.032 11.176 18.808 11.336 18.664 11.336C18.536 11.336 18.392 11.28 18.232 11.168C18.088 11.04 17.792 10.912 17.344 10.784C16.896 10.64 16.464 10.568 16.048 10.568C15.056 10.568 14.248 10.888 13.624 11.528C13.016 12.168 12.712 13.16 12.712 14.504C12.712 15.848 13.024 16.872 13.648 17.576C14.288 18.264 15.016 18.608 15.832 18.608C16.664 18.608 17.08 18.4 17.08 17.984Z" fill="white"/>
</svg>
