<svg width="43" height="43" viewBox="0 0 43 43" fill="none" xmlns="http://www.w3.org/2000/svg">
<rect y="9" width="43" height="34" rx="12" fill="#2993BA"/>
<rect y="5" width="43" height="35" rx="12" fill="#FF9447"/>
<rect y="2" width="43" height="34" rx="12" fill="#FD6F5A"/>
<path d="M24.44 23.312L24.504 18.96C24.504 18.6613 24.8133 18.4693 25.432 18.384C26.0507 18.2773 26.5627 18.224 26.968 18.224L28.216 18.32C29.0267 18.448 29.432 18.672 29.432 18.992L29.304 29.008C28.8773 29.3067 28.0133 29.6053 26.712 29.904C25.432 30.1813 23.96 30.32 22.296 30.32C19.2027 30.32 16.7067 29.3173 14.808 27.312C12.9093 25.3067 11.96 22.3627 11.96 18.48C11.96 15.1733 12.888 12.4853 14.744 10.416C16.6 8.34667 19.1707 7.312 22.456 7.312C23.9493 7.312 25.2933 7.46133 26.488 7.76C27.704 8.03733 28.536 8.42133 28.984 8.912C29.0053 9.08267 29.016 9.40267 29.016 9.872C29.016 10.3413 28.856 11.0133 28.536 11.888C28.216 12.7413 27.8533 13.3813 27.448 13.808C27.0427 14.2347 26.744 14.448 26.552 14.448C26.3813 14.448 26.1893 14.3733 25.976 14.224C25.784 14.0533 25.3893 13.8827 24.792 13.712C24.1947 13.52 23.6187 13.424 23.064 13.424C21.7413 13.424 20.664 13.8507 19.832 14.704C19.0213 15.5573 18.616 16.88 18.616 18.672C18.616 20.464 19.032 21.8293 19.864 22.768C20.7173 23.6853 21.688 24.144 22.776 24.144C23.8853 24.144 24.44 23.8667 24.44 23.312Z" fill="white"/>
</svg>
