<svg width="60" height="60" viewBox="0 0 60 60" fill="none" xmlns="http://www.w3.org/2000/svg">
<path d="M15.8325 21.91C14.8327 21.4876 13.9364 20.8532 13.2056 20.0506C12.4749 19.248 11.9271 18.2964 11.6 17.2614C11.2729 16.2265 11.1743 15.1328 11.3111 14.0561C11.4479 12.9793 11.8167 11.9451 12.3922 11.0248C12.9677 10.1045 13.7361 9.32006 14.6443 8.72569C15.5525 8.13132 16.5789 7.74116 17.6526 7.58216C18.7263 7.42316 19.8218 7.4991 20.8633 7.80475C21.9048 8.1104 22.8675 8.63847 23.685 9.35249M11.25 45H7.5V40C7.5 37.3478 8.55357 34.8043 10.4289 32.9289C12.3043 31.0536 14.8478 30 17.5 30M35.9475 9.69749C36.7557 8.89251 37.7369 8.2825 38.8165 7.91388C39.896 7.54526 41.0453 7.42774 42.1771 7.57026C43.3089 7.71278 44.3933 8.11159 45.3477 8.73634C46.3021 9.36109 47.1015 10.1953 47.6849 11.1755C48.2683 12.1558 48.6205 13.2562 48.7145 14.393C48.8086 15.5298 48.6421 16.6731 48.2277 17.7359C47.8134 18.7987 47.162 19.753 46.3233 20.5261C45.4845 21.2993 44.4805 21.8709 43.3875 22.1975M42.5 30C45.1522 30 47.6957 31.0536 49.5711 32.9289C51.4464 34.8043 52.5 37.3478 52.5 40V45H48.0975M37.5 22.5C37.5 26.6421 34.1421 30 30 30C25.8579 30 22.5 26.6421 22.5 22.5C22.5 18.3579 25.8579 15 30 15C34.1421 15 37.5 18.3579 37.5 22.5ZM27.5 37.5H32.5C35.1522 37.5 37.6957 38.5536 39.5711 40.4289C41.4464 42.3043 42.5 44.8478 42.5 47.5V52.5H17.5V47.5C17.5 44.8478 18.5536 42.3043 20.4289 40.4289C22.3043 38.5536 24.8478 37.5 27.5 37.5Z" stroke="white" stroke-width="5" stroke-linecap="round" stroke-linejoin="round"/>
</svg>
