<svg width="52" height="52" viewBox="0 0 52 52" fill="none" xmlns="http://www.w3.org/2000/svg">
<path d="M28.1283 5.9887C27.3671 5.39665 26.9865 5.10062 26.5663 4.98683C26.1954 4.88643 25.8046 4.88643 25.4337 4.98683C25.0135 5.10062 24.6329 5.39665 23.8717 5.98869L9.17668 17.4181C8.19438 18.1821 7.70323 18.5641 7.34939 19.0426C7.03596 19.4663 6.80247 19.9437 6.66039 20.4513C6.5 21.0243 6.5 21.6465 6.5 22.891V38.5667C6.5 40.9936 6.5 42.207 6.97231 43.134C7.38776 43.9493 8.05067 44.6122 8.86604 45.0277C9.79299 45.5 11.0064 45.5 13.4333 45.5H17.7667C18.3734 45.5 18.6768 45.5 18.9085 45.3819C19.1123 45.2781 19.2781 45.1123 19.3819 44.9085C19.5 44.6767 19.5 44.3734 19.5 43.7667V29.4667C19.5 28.2532 19.5 27.6465 19.7362 27.183C19.9439 26.7753 20.2753 26.4439 20.683 26.2361C21.1465 26 21.7532 26 22.9667 26H29.0333C30.2468 26 30.8535 26 31.317 26.2361C31.7247 26.4439 32.0561 26.7753 32.2638 27.183C32.5 27.6465 32.5 28.2532 32.5 29.4667V43.7667C32.5 44.3734 32.5 44.6767 32.6181 44.9085C32.7219 45.1123 32.8877 45.2781 33.0915 45.3819C33.3232 45.5 33.6266 45.5 34.2333 45.5H38.5667C40.9936 45.5 42.207 45.5 43.134 45.0277C43.9493 44.6122 44.6122 43.9493 45.0277 43.134C45.5 42.207 45.5 40.9936 45.5 38.5667V22.891C45.5 21.6465 45.5 21.0243 45.3396 20.4513C45.1975 19.9437 44.964 19.4663 44.6506 19.0426C44.2968 18.5641 43.8056 18.1821 42.8233 17.4181L28.1283 5.9887Z" stroke="white" stroke-width="5" stroke-linecap="round" stroke-linejoin="round"/>
</svg>
