<svg width="38" height="38" viewBox="0 0 38 38" fill="none" xmlns="http://www.w3.org/2000/svg">
<circle cx="19" cy="19" r="17" fill="white" stroke="black" stroke-width="2.5"/>
<path d="M27 18C26.7348 18 26.4805 18.1054 26.2929 18.2929C26.1054 18.4804 26 18.7348 26 19C26.0011 20.3778 25.5952 21.7253 24.8333 22.8732C24.0713 24.0212 22.9873 24.9185 21.7172 25.4526C20.4471 25.9867 19.0476 26.1338 17.6942 25.8754C16.3408 25.6169 15.094 24.9645 14.11 24H17C17.2652 24 17.5196 23.8946 17.7071 23.7071C17.8947 23.5196 18 23.2652 18 23C18 22.7348 17.8947 22.4804 17.7071 22.2929C17.5196 22.1054 17.2652 22 17 22H12.236C12.0384 21.9641 11.8346 21.9884 11.651 22.07C11.632 22.077 11.614 22.081 11.596 22.088C11.578 22.095 11.568 22.094 11.556 22.102C11.528 22.117 11.512 22.144 11.487 22.162C11.3404 22.2478 11.2185 22.37 11.1332 22.5169C11.0479 22.6637 11.002 22.8302 11 23V28C11 28.2652 11.1054 28.5196 11.2929 28.7071C11.4805 28.8946 11.7348 29 12 29C12.2653 29 12.5196 28.8946 12.7071 28.7071C12.8947 28.5196 13 28.2652 13 28V25.68C14.2898 26.847 15.8907 27.6142 17.6083 27.8883C19.3259 28.1624 21.0862 27.9316 22.6751 27.224C24.2639 26.5164 25.6131 25.3625 26.5584 23.9025C27.5037 22.4425 28.0046 20.7393 28 19C28 18.7348 27.8947 18.4804 27.7071 18.2929C27.5196 18.1054 27.2652 18 27 18Z" fill="black"/>
<path d="M12 19C11.999 17.6222 12.4049 16.2747 13.1668 15.1268C13.9287 13.9788 15.0128 13.0815 16.2829 12.5474C17.553 12.0133 18.9525 11.8662 20.3059 12.1247C21.6592 12.3831 22.9061 13.0355 23.89 14H21C20.7348 14 20.4805 14.1054 20.2929 14.2929C20.1054 14.4804 20 14.7348 20 15C20 15.2652 20.1054 15.5196 20.2929 15.7071C20.4805 15.8946 20.7348 16 21 16H25.768C25.9643 16.0356 26.1668 16.0112 26.349 15.93C26.368 15.923 26.386 15.919 26.404 15.912C26.422 15.905 26.431 15.906 26.444 15.898C26.472 15.883 26.488 15.856 26.514 15.838C26.6604 15.752 26.782 15.6297 26.8672 15.4829C26.9523 15.3361 26.9981 15.1697 27 15V10C27 9.73478 26.8947 9.48043 26.7071 9.29289C26.5196 9.10536 26.2652 9 26 9C25.7348 9 25.4805 9.10536 25.2929 9.29289C25.1054 9.48043 25 9.73478 25 10V12.32C23.7103 11.153 22.1093 10.3858 20.3917 10.1117C18.6741 9.83762 16.9139 10.0684 15.325 10.776C13.7361 11.4836 12.387 12.6375 11.4417 14.0975C10.4963 15.5575 9.99549 17.2607 10 19C10 19.2652 10.1054 19.5196 10.2929 19.7071C10.4805 19.8946 10.7348 20 11 20C11.2653 20 11.5196 19.8946 11.7071 19.7071C11.8947 19.5196 12 19.2652 12 19Z" fill="black"/>
</svg>
