<svg width="16" height="16" viewBox="0 0 16 16" fill="none" xmlns="http://www.w3.org/2000/svg">
<path d="M6.26341 12.9141L6.65304 13.7904C6.76887 14.0513 6.95789 14.2729 7.19719 14.4284C7.43649 14.584 7.71578 14.6668 8.00119 14.6667C8.2866 14.6668 8.56589 14.584 8.80519 14.4284C9.04449 14.2729 9.23351 14.0513 9.34934 13.7904L9.73897 12.9141C9.87767 12.6032 10.111 12.3439 10.4056 12.1734C10.7022 12.0023 11.0452 11.9295 11.3856 11.9652L12.339 12.0667C12.6227 12.0967 12.9091 12.0438 13.1634 11.9143C13.4177 11.7848 13.629 11.5843 13.7716 11.3371C13.9143 11.0901 13.9824 10.8069 13.9674 10.522C13.9524 10.237 13.855 9.96258 13.6871 9.73189L13.1227 8.95634C12.9217 8.67813 12.8143 8.34325 12.816 8.00004C12.8159 7.65777 12.9243 7.32427 13.1256 7.04745L13.6901 6.27189C13.858 6.04121 13.9554 5.76675 13.9703 5.48182C13.9853 5.19689 13.9173 4.91373 13.7745 4.66671C13.6319 4.41953 13.4207 4.21903 13.1664 4.08953C12.9121 3.96002 12.6257 3.90706 12.3419 3.93708L11.3886 4.03856C11.0482 4.07431 10.7051 4.00145 10.4086 3.83041C10.1133 3.65888 9.87998 3.39828 9.74193 3.08597L9.34934 2.20967C9.23351 1.94882 9.04449 1.72718 8.80519 1.57164C8.56589 1.4161 8.2866 1.33333 8.00119 1.33337C7.71578 1.33333 7.43649 1.4161 7.19719 1.57164C6.95789 1.72718 6.76887 1.94882 6.65304 2.20967L6.26341 3.08597C6.12536 3.39828 5.89199 3.65888 5.59675 3.83041C5.30022 4.00145 4.95719 4.07431 4.61675 4.03856L3.66045 3.93708C3.37667 3.90706 3.09028 3.96002 2.83599 4.08953C2.58171 4.21903 2.37046 4.41953 2.22786 4.66671C2.08507 4.91373 2.01705 5.19689 2.03203 5.48182C2.04702 5.76675 2.14438 6.04121 2.3123 6.27189L2.87675 7.04745C3.07804 7.32427 3.18644 7.65777 3.18638 8.00004C3.18644 8.34232 3.07804 8.67581 2.87675 8.95263L2.3123 9.72819C2.14438 9.95887 2.04702 10.2333 2.03203 10.5183C2.01705 10.8032 2.08507 11.0863 2.22786 11.3334C2.3706 11.5804 2.58188 11.7808 2.83612 11.9103C3.09037 12.0398 3.37669 12.0928 3.66045 12.063L4.61378 11.9615C4.95423 11.9258 5.29726 11.9986 5.59378 12.1697C5.89013 12.3407 6.12459 12.6014 6.26341 12.9141Z" stroke="#4E4E4E" stroke-width="2" stroke-linecap="round" stroke-linejoin="round"/>
<path d="M8 10C9.10457 10 10 9.10461 10 8.00004C10 6.89547 9.10457 6.00004 8 6.00004C6.89543 6.00004 6 6.89547 6 8.00004C6 9.10461 6.89543 10 8 10Z" stroke="#4E4E4E" stroke-width="2" stroke-linecap="round" stroke-linejoin="round"/>
</svg>
