<svg width="54" height="54" viewBox="0 0 54 54" fill="none" xmlns="http://www.w3.org/2000/svg">
<path d="M44.4328 11.25C47.6218 15.683 49.5 21.1222 49.5 27C49.5 32.8778 47.6218 38.317 44.4328 42.75M35.4269 18C37.2064 20.5511 38.25 23.6537 38.25 27C38.25 30.3463 37.2064 33.4489 35.4269 36M21.6772 9.82278L14.5544 16.9456C14.1653 17.3347 13.9707 17.5293 13.7436 17.6684C13.5423 17.7918 13.3229 17.8827 13.0933 17.9378C12.8343 18 12.5592 18 12.0088 18H8.1C6.83988 18 6.20982 18 5.72852 18.2452C5.30516 18.4609 4.96095 18.8051 4.74524 19.2285C4.5 19.7098 4.5 20.3399 4.5 21.6V32.4C4.5 33.6601 4.5 34.2902 4.74524 34.7715C4.96095 35.1948 5.30516 35.539 5.72852 35.7548C6.20982 36 6.83988 36 8.1 36H12.0088C12.5592 36 12.8343 36 13.0933 36.0622C13.3229 36.1173 13.5423 36.2082 13.7436 36.3315C13.9707 36.4707 14.1653 36.6653 14.5544 37.0544L21.6772 44.1772C22.6411 45.141 23.123 45.623 23.5367 45.6555C23.8957 45.6838 24.2466 45.5385 24.4805 45.2646C24.75 44.949 24.75 44.2675 24.75 42.9044V11.0956C24.75 9.73249 24.75 9.05094 24.4805 8.73535C24.2466 8.46151 23.8957 8.31619 23.5367 8.34445C23.123 8.37701 22.6411 8.85893 21.6772 9.82278Z" stroke="white" stroke-width="5" stroke-linecap="round" stroke-linejoin="round"/>
</svg>
