<svg width="50" height="42" viewBox="0 0 50 42" fill="none" xmlns="http://www.w3.org/2000/svg">
<path d="M46.6666 14.5L33.6666 27.5M33.6666 14.5L46.6666 27.5M19.8743 4.45897L13.0153 11.318C12.6406 11.6927 12.4532 11.88 12.2345 12.014C12.0407 12.1328 11.8293 12.2204 11.6083 12.2735C11.3589 12.3333 11.0939 12.3333 10.564 12.3333H6.79992C5.58647 12.3333 4.97975 12.3333 4.51627 12.5695C4.10859 12.7772 3.77713 13.1087 3.5694 13.5163C3.33325 13.9798 3.33325 14.5865 3.33325 15.8V26.2C3.33325 27.4134 3.33325 28.0202 3.5694 28.4836C3.77713 28.8913 4.10859 29.2228 4.51627 29.4305C4.97975 29.6666 5.58647 29.6667 6.79992 29.6667H10.564C11.0939 29.6667 11.3589 29.6666 11.6083 29.7265C11.8293 29.7796 12.0407 29.8671 12.2345 29.9859C12.4532 30.1199 12.6406 30.3073 13.0153 30.682L19.8743 37.541C20.8024 38.4691 21.2665 38.9332 21.6649 38.9646C22.0106 38.9918 22.3485 38.8518 22.5737 38.5882C22.8333 38.2842 22.8333 37.6279 22.8333 36.3153V5.68462C22.8333 4.37202 22.8333 3.71572 22.5737 3.41181C22.3485 3.14812 22.0106 3.00818 21.6649 3.03539C21.2665 3.06675 20.8024 3.53082 19.8743 4.45897Z" stroke="white" stroke-width="5" stroke-linecap="round" stroke-linejoin="round"/>
</svg>
